<svg xmlns="http://www.w3.org/2000/svg" width="1200" height="520" viewBox="0 0 1200 520" role="img" aria-labelledby="title desc"><title id="title">Block World README concept: explain the build loop</title><desc id="desc">A pixel-art-inspired scene shows a small builder character turning a simple block plan into a colorful world.</desc><rect width="1200" height="520" rx="26" fill="#17182B"/><g font-family="-apple-system,BlinkMacSystemFont,'Segoe UI',sans-serif"><text x="54" y="52" fill="#9D9BEA" font-size="14" font-weight="750" letter-spacing="2">CREATOR TOOL / PIXEL SCENE</text><text x="54" y="113" fill="#F5F0DD" font-size="43" font-weight="780">Show the build, not just the promise.</text><text x="54" y="149" fill="#B8B6D1" font-size="17">A conceptual example of turning a plan into a visible result.</text><g transform="translate(610 188)"><path d="M36 221h464v28H36z" fill="#22243E"/><path d="M63 193h112v28H63zM175 165h112v28H175zM287 137h112v28H287zM399 109h73v28h-73z" fill="#58C99E"/><path d="M63 165h56v28H63zM175 137h56v28h-56zM287 109h56v28h-56zM399 81h73v28h-73z" fill="#81E2BB"/><path d="M79 165v-56h56V81h56v56h-28v28z" fill="#6D62B7"/><rect x="95" y="123" width="12" height="12" fill="#F5D27A"/><rect x="119" y="123" width="12" height="12" fill="#F5D27A"/><rect x="103" y="139" width="22" height="18" fill="#FF8A70"/><path d="M40 221h28v-56H40zm448 0h30v-84h-30z" fill="#C97C56"/><rect x="207" y="81" width="13" height="13" fill="#F5D27A"/><rect x="239" y="81" width="13" height="13" fill="#F5D27A"/><rect x="223" y="97" width="16" height="16" fill="#FF8A70"/><path d="M0 249h550" stroke="#5B5B81" stroke-width="2" stroke-dasharray="5 8"/><g transform="translate(350 6)"><rect x="0" y="0" width="42" height="42" fill="#F0B76A"/><rect x="0" y="42" width="42" height="38" fill="#4CA58F"/><rect x="-12" y="18" width="12" height="32" fill="#4CA58F"/><rect x="42" y="18" width="12" height="32" fill="#4CA58F"/><rect x="7" y="14" width="7" height="8" fill="#17182B"/><rect x="28" y="14" width="7" height="8" fill="#17182B"/><path d="M-2 80h48v39h-48z" fill="#6D62B7"/><path d="M4 118h14v35H4m23-35h14v35H27" fill="#F0B76A"/><rect x="28" y="-19" width="46" height="11" rx="3" fill="#FF8A70"/><path d="M62-9l12 12" stroke="#FF8A70" stroke-width="7" stroke-linecap="round"/></g><g transform="translate(22 30)"><rect width="204" height="90" rx="12" fill="#272941" stroke="#555779"/><text x="18" y="27" fill="#A5A3C8" font-size="12" font-weight="700" letter-spacing="1.2">PLAN</text><g fill="#847AD2"><rect x="22" y="45" width="24" height="24"/><rect x="49" y="45" width="24" height="24"/><rect x="76" y="45" width="24" height="24"/><rect x="103" y="45" width="24" height="24"/><rect x="103" y="18" width="24" height="24"/><rect x="130" y="18" width="24" height="24"/><rect x="130" y="45" width="24" height="24"/></g><path d="M157 56h27" stroke="#FF8A70" stroke-width="3"/></g></g><text x="54" y="470" fill="#8685A8" font-family="ui-monospace,monospace" font-size="13">PROJECT-NATIVE ILLUSTRATION · VECTOR ART</text></g></svg>
