<svg xmlns="http://www.w3.org/2000/svg" width="1200" height="390" viewBox="0 0 1200 390" role="img" aria-labelledby="title desc">
  <title id="title">RetaLab README Studio</title>
  <desc id="desc">A repository README moves from real project evidence to a clear, designed first impression.</desc>
  <defs><pattern id="grid" width="32" height="32" patternUnits="userSpaceOnUse"><path d="M32 0H0V32" fill="none" stroke="#EAF2F1" stroke-opacity=".055"/></pattern><linearGradient id="mint" x1="0" y1="0" x2="1" y2="1"><stop stop-color="#83F0CA"/><stop offset="1" stop-color="#35BFA7"/></linearGradient><clipPath id="frame"><rect width="1200" height="390" rx="28"/></clipPath></defs>
  <g clip-path="url(#frame)"><rect width="1200" height="390" fill="#101923"/><rect width="1200" height="390" fill="url(#grid)"/><circle cx="1080" cy="86" r="200" fill="#55D9B4" opacity=".07"/><circle cx="1180" cy="340" r="170" fill="#FF765E" opacity=".08"/>
    <g font-family="-apple-system,BlinkMacSystemFont,'Segoe UI',sans-serif" transform="translate(64 48)"><text y="17" fill="#9CAEB4" font-size="16" font-weight="700" letter-spacing="2.6">RETALAB · REPOSITORY STORYTELLING</text><rect y="38" width="54" height="5" rx="2.5" fill="#FF765E"/><text y="137" fill="#F4F4EC" font-size="76" font-weight="780" letter-spacing="-3">Make the work</text><text y="210" fill="#F4F4EC" font-size="76" font-weight="780" letter-spacing="-3">easy to understand.</text><text y="260" fill="#B9C9C8" font-size="23">README design grounded in real project proof.</text><text y="318" fill="#83F0CA" font-family="ui-monospace,monospace" font-size="15" font-weight="700" letter-spacing="1">INSPECT  /  FRAME  /  DESIGN  /  VERIFY</text></g>
    <g transform="translate(782 65)" font-family="-apple-system,BlinkMacSystemFont,'Segoe UI',sans-serif"><path d="M54 66C138 26 218 54 263 119S344 205 310 256" fill="none" stroke="#83F0CA" stroke-opacity=".6" stroke-width="2" stroke-dasharray="5 8"/><g transform="rotate(-5 132 85)"><rect x="9" y="10" width="260" height="168" rx="18" fill="#050B10" opacity=".45"/><rect width="260" height="168" rx="18" fill="#F4F4EC"/><text x="20" y="32" fill="#69777A" font-size="12" font-weight="750" letter-spacing="1.8">01 / REAL INPUT</text><rect x="20" y="47" width="220" height="87" rx="10" fill="#E4EBE7"/><path d="M37 69h119M37 86h163M37 103h93" stroke="#A3B5AF" stroke-width="7" stroke-linecap="round"/><circle cx="217" cy="120" r="8" fill="#FF765E"/></g><g transform="translate(94 142) rotate(5 130 70)"><rect x="8" y="9" width="254" height="152" rx="18" fill="#050B10" opacity=".45"/><rect width="254" height="152" rx="18" fill="url(#mint)"/><text x="20" y="32" fill="#16483F" font-size="12" font-weight="750" letter-spacing="1.8">02 / CLEAR PROOF</text><rect x="20" y="47" width="95" height="82" rx="10" fill="#101923"/><path d="M36 70h59M36 84h43M36 99h51" stroke="#83F0CA" stroke-width="5" stroke-linecap="round"/><rect x="129" y="53" width="104" height="10" rx="5" fill="#24695D" opacity=".7"/><rect x="129" y="75" width="82" height="8" rx="4" fill="#24695D" opacity=".42"/><rect x="129" y="96" width="95" height="8" rx="4" fill="#24695D" opacity=".42"/></g><circle cx="360" cy="57" r="8" fill="#FF765E"/><circle cx="48" cy="300" r="6" fill="#83F0CA"/></g>
  </g>
</svg>
